<svg id="visual" viewBox="0 0 900 450" width="900" height="450" xmlns="http://www.w3.org/2000/svg" xmlns:xlink="http://www.w3.org/1999/xlink" version="1.1"><g transform="translate(446.6477721713055 227.51679326527585)"><path d="M37 -71.2C50.2 -49.1 64.7 -42.6 79.7 -30.3C94.7 -18.1 110.2 0 105 12.9C99.7 25.9 73.8 33.7 59.7 54C45.6 74.3 43.4 107.2 28.3 124.6C13.1 142 -14.8 143.9 -29.6 127.5C-44.4 111 -46 76.1 -52.9 53.8C-59.8 31.5 -72 21.8 -82.2 6.6C-92.5 -8.6 -100.8 -29.2 -99.1 -50.4C-97.5 -71.7 -85.8 -93.5 -67.6 -113.3C-49.4 -133.1 -24.7 -150.9 -6.4 -141C11.9 -131 23.8 -93.3 37 -71.2" fill="none" stroke="#ffffff" stroke-width="6"></path></g></svg>