<svg id="visual" viewBox="0 0 900 450" width="900" height="450" xmlns="http://www.w3.org/2000/svg" xmlns:xlink="http://www.w3.org/1999/xlink" version="1.1"><g transform="translate(445.48618338797166 228.70501723574026)"><path d="M69.5 -111.1C91.8 -93.8 112.8 -77.4 127.5 -55.3C142.3 -33.1 150.8 -5.1 145.4 19.7C140 44.5 120.6 66.1 101.6 88.1C82.6 110 64 132.2 40.2 141.3C16.3 150.3 -12.7 146.2 -37.9 135.7C-63.1 125.2 -84.4 108.5 -98.4 87.8C-112.3 67.1 -118.8 42.6 -126.2 15.9C-133.6 -10.8 -141.8 -39.7 -136.1 -66.4C-130.5 -93 -110.9 -117.5 -85.8 -133.6C-60.8 -149.6 -30.4 -157.3 -3.4 -152C23.6 -146.7 47.2 -128.5 69.5 -111.1" fill="none" stroke="#ffffff" stroke-width="6"></path></g></svg>