<svg id="visual" viewBox="0 0 900 450" width="900" height="450" xmlns="http://www.w3.org/2000/svg" xmlns:xlink="http://www.w3.org/1999/xlink" version="1.1"><g transform="translate(431.4536214456218 224.88218178233384)"><path d="M68.3 -99C85.7 -95 95.1 -71.4 110.3 -47.6C125.4 -23.8 146.2 0.1 140.9 18.5C135.5 37 104 49.9 82 65.7C60 81.6 47.5 100.3 32.4 99.9C17.3 99.6 -0.2 80.1 -24.8 76.6C-49.4 73 -81 85.3 -94.7 77.6C-108.4 69.8 -104.2 42.1 -103.5 17.6C-102.7 -6.9 -105.5 -28.2 -94.6 -39.5C-83.7 -50.9 -59.1 -52.4 -41.1 -56.1C-23.1 -59.9 -11.5 -65.9 6.9 -76.7C25.4 -87.5 50.8 -103.1 68.3 -99" fill="none" stroke="#ffffff" stroke-width="6"></path></g></svg>