<svg id="visual" viewBox="0 0 900 450" width="900" height="450" xmlns="http://www.w3.org/2000/svg" xmlns:xlink="http://www.w3.org/1999/xlink" version="1.1"><g transform="translate(456.16201876744486 256.728992897099)"><path d="M62.2 -114.4C71.8 -90.6 64.7 -58.5 75.5 -34.6C86.2 -10.6 114.9 5 115.9 18.5C116.8 32.1 90.2 43.6 71.5 57.9C52.7 72.2 42 89.3 28.5 90.2C14.9 91.2 -1.4 75.8 -21.6 71C-41.8 66.3 -65.9 72.1 -78.3 64.2C-90.6 56.4 -91.3 34.8 -101.2 10.5C-111.1 -13.9 -130.1 -41 -128.1 -64C-126.1 -86.9 -103.1 -105.7 -78.2 -122.5C-53.3 -139.3 -26.7 -154 -0.2 -153.7C26.3 -153.4 52.6 -138.1 62.2 -114.4" fill="none" stroke="#ffffff" stroke-width="6"></path></g></svg>