<svg id="visual" viewBox="0 0 900 450" width="900" height="450" xmlns="http://www.w3.org/2000/svg" xmlns:xlink="http://www.w3.org/1999/xlink" version="1.1"><g transform="translate(454.05239547848805 226.4589088204275)"><path d="M77 -120.3C101.7 -103.9 125 -85.8 134.2 -62.3C143.4 -38.7 138.5 -9.8 133.3 18.4C128.1 46.6 122.6 74.1 107.3 94.5C92 115 66.8 128.5 39.5 138.1C12.2 147.8 -17.3 153.5 -40.2 143.7C-63.1 133.8 -79.4 108.4 -96 85.3C-112.6 62.3 -129.5 41.7 -139.2 16.2C-148.8 -9.3 -151.2 -39.7 -140.1 -64C-129 -88.2 -104.5 -106.4 -78.9 -122.4C-53.3 -138.3 -26.7 -152.2 -0.3 -151.7C26.1 -151.3 52.3 -136.7 77 -120.3" fill="none" stroke="#ffffff" stroke-width="6"></path></g></svg>