<svg width="67" height="89" viewBox="0 0 67 89" fill="none" xmlns="http://www.w3.org/2000/svg">
<path d="M28.3211 6.15437C32.3665 4.45968 36.6473 3.43448 41 3.11124V44.5L41 85.8888C36.6473 85.5655 32.3665 84.5403 28.3211 82.8456C23.3492 80.7628 18.8293 77.709 15.0206 73.8569C11.2117 70.0048 8.18863 65.4299 6.12549 60.3924C4.06232 55.3549 3 49.9545 3 44.5C3 39.0455 4.06232 33.6451 6.12548 28.6076C8.18863 23.5701 11.2117 18.9952 15.0206 15.1431C18.8293 11.291 23.3492 8.23721 28.3211 6.15437Z" stroke="url(#paint0_linear_466_1854)" stroke-width="6"/>
<path d="M18.314 47.319H24.462V49.757C24.462 49.757 24.25 56.329 31.193 56.329C38.136 56.329 37.924 49.757 37.924 49.757V29.829H44.125V51.188C44.125 51.188 43.86 62.53 31.193 62.53C18.526 62.53 18.314 51.188 18.314 51.188V47.319Z" fill="white"/>
<path d="M65.5 29.8301V62.4991" stroke="white" stroke-width="2"/>
<defs>
<linearGradient id="paint0_linear_466_1854" x1="22" y1="0" x2="22" y2="89" gradientUnits="userSpaceOnUse">
<stop stop-color="#433EE0"/>
<stop offset="1" stop-color="#589AE9"/>
</linearGradient>
</defs>
</svg>
